<svg width="443" height="183" viewBox="0 0 443 183" fill="none" xmlns="http://www.w3.org/2000/svg">
<g filter="url(#filter0_d_202_4)">
<path d="M71.84 44.768C71.84 35.1253 74.9547 28.32 81.184 24.352C84.4693 22.2187 88.5013 21.152 93.28 21.152C98.016 21.152 102.475 21.92 106.656 23.456C107.211 23.6693 107.509 23.776 107.552 23.776L105.696 29.408C105.653 29.408 105.355 29.344 104.8 29.216C104.288 29.0453 103.755 28.896 103.2 28.768C102.688 28.5973 102.005 28.4267 101.152 28.256C100.299 28.0853 99.488 27.936 98.72 27.808C97.0133 27.4667 95.2 27.296 93.28 27.296C88.5013 27.296 85.0027 28.64 82.784 31.328C80.608 34.016 79.52 38.5387 79.52 44.896C79.52 52.1067 80.7787 56.928 83.296 59.36C84.576 60.5973 85.984 61.4507 87.52 61.92C89.056 62.3893 90.8693 62.624 92.96 62.624C95.0507 62.624 97.7813 62.4747 101.152 62.176V48.288L108.448 47.456V66.336C108.405 66.336 108 66.4427 107.232 66.656C106.464 66.8267 105.76 66.9973 105.12 67.168C104.48 67.296 103.584 67.4667 102.432 67.68C101.323 67.8933 100.256 68.0853 99.232 68.256C96.672 68.5973 94.1547 68.768 91.68 68.768C85.3227 68.768 80.416 66.7413 76.96 62.688C73.5467 58.6347 71.84 52.6613 71.84 44.768ZM120.35 68V21.92H127.646V61.856H145.118L144.222 68H120.35ZM166.573 18.208L165.037 15.52C166.359 14.1973 168.407 12.576 171.181 10.656C173.997 8.69333 175.789 7.712 176.557 7.712C177.325 7.712 178.114 8.416 178.925 9.824C179.778 11.232 180.205 12.3627 180.205 13.216L166.573 18.208ZM167.469 68.768C162.05 68.768 157.549 66.8053 153.965 62.88C150.423 58.912 148.653 53.152 148.653 45.6C148.653 38.0053 150.466 32.032 154.093 27.68C157.719 23.328 163.159 21.152 170.413 21.152C175.874 21.152 180.375 23.1147 183.917 27.04C187.458 30.9227 189.229 36.6613 189.229 44.256C189.229 51.808 187.415 57.7813 183.789 62.176C180.162 66.5707 174.722 68.768 167.469 68.768ZM168.685 62.624C173.506 62.624 176.877 61.0667 178.797 57.952C180.759 54.7947 181.741 50.1867 181.741 44.128C181.741 38.0693 180.631 33.76 178.413 31.2C176.237 28.5973 173.186 27.296 169.261 27.296C164.354 27.296 160.941 28.9813 159.021 32.352C157.271 35.4667 156.397 39.9893 156.397 45.92C156.397 51.808 157.485 56.0747 159.661 58.72C161.837 61.3227 164.845 62.624 168.685 62.624ZM199.975 68V22.304C203.303 21.792 208.401 21.536 215.271 21.536C219.879 21.536 223.42 22.8587 225.895 25.504C228.369 28.1067 229.607 31.456 229.607 35.552C229.607 38.368 228.924 40.864 227.559 43.04C226.193 45.1733 224.231 46.7947 221.671 47.904L225.958 57.888C226.727 59.6373 227.687 61.0027 228.839 61.984C229.991 62.9227 231.228 63.392 232.551 63.392L231.527 68.384H229.991C228.028 68.384 226.087 67.872 224.167 66.848C222.289 65.7813 220.881 64.2027 219.943 62.112L214.183 49.376C213.841 49.4187 213.287 49.44 212.519 49.44H207.271V68H199.975ZM207.271 43.808H218.023C218.62 43.5947 219.281 43.0827 220.007 42.272C221.287 40.8213 221.927 38.7307 221.927 36C221.927 30.1973 219.196 27.296 213.735 27.296C211.857 27.296 209.703 27.4027 207.271 27.616V43.808ZM242.35 68V21.92H249.646V68H242.35ZM258.163 68L273.331 22.88C273.672 21.984 274.419 21.536 275.571 21.536C276.04 21.536 278.323 21.664 282.419 21.92L297.715 68H290.227L286.067 54.56H269.875L265.779 68H258.163ZM271.603 48.8H284.275L277.875 28.064V28.448L271.603 48.8Z" fill="white"/>
</g>
<g filter="url(#filter1_d_202_4)">
<path d="M18.36 154.08V104.96H4.6V91.52H18.36V85.44C18.36 74.9867 20.76 67.4667 25.56 62.88C30.04 58.5067 36.6 56.32 45.24 56.32C53.88 56.32 61.56 58.1867 68.28 61.92L63.64 74.72C58.52 72.0533 53.72 70.72 49.24 70.72C44.76 70.72 41.6667 71.84 39.96 74.08C38.2533 76.2133 37.4 79.52 37.4 84V91.52H61.08V104.96H37.4V158.56L50.84 159.2V172H8.44V159.84L13.72 159.36C15.32 159.147 16.4933 158.72 17.24 158.08C17.9867 157.333 18.36 156 18.36 154.08Z" fill="#BB0148"/>
<path d="M107.659 89.12C115.659 89.12 122.005 91.0933 126.699 95.04C131.392 98.88 133.739 104.32 133.739 111.36C133.739 116.053 132.725 120.213 130.699 123.84C128.672 127.36 126.165 130.133 123.179 132.16C120.192 134.187 116.565 135.84 112.299 137.12C105.152 139.253 97.0988 140.32 88.1388 140.32C88.4588 145.973 90.2188 150.56 93.4188 154.08C96.6188 157.493 101.525 159.2 108.139 159.2C114.752 159.2 121.365 156.853 127.979 152.16L134.059 165.12C131.925 167.04 128.299 169.013 123.179 171.04C118.165 173.067 112.405 174.08 105.899 174.08C92.8854 174.08 83.3388 170.507 77.2588 163.36C71.1788 156.107 68.1388 146.187 68.1388 133.6C68.1388 121.013 71.6054 110.453 78.5388 101.92C85.4721 93.3867 95.1788 89.12 107.659 89.12ZM100.299 125.76C104.245 125.013 107.872 123.467 111.179 121.12C114.485 118.667 116.139 115.787 116.139 112.48C116.139 105.973 112.939 102.72 106.539 102.72C100.565 102.72 95.9788 105.12 92.7788 109.92C89.5788 114.613 87.8188 120.267 87.4988 126.88C92.1921 126.773 96.4588 126.4 100.299 125.76Z" fill="#74AA3B"/>
<path d="M186.919 103.68C184.359 102.72 181.265 102.24 177.639 102.24C174.012 102.24 171.079 103.093 168.839 104.8C166.705 106.4 165.639 108.427 165.639 110.88C165.639 113.227 166.012 115.093 166.759 116.48C167.612 117.76 168.892 118.88 170.599 119.84C173.265 121.227 176.465 122.453 180.199 123.52C183.932 124.48 186.705 125.28 188.519 125.92C190.332 126.453 192.572 127.413 195.239 128.8C198.012 130.187 200.092 131.68 201.479 133.28C205.212 137.227 207.079 142.293 207.079 148.48C207.079 156.48 204.145 162.773 198.279 167.36C192.519 171.84 185.159 174.08 176.199 174.08C163.185 174.08 153.372 172.427 146.759 169.12V146.88L161.159 145.76V153.44C161.159 158.133 165.639 160.48 174.599 160.48C183.559 160.48 188.039 157.227 188.039 150.72C188.039 148.373 187.239 146.453 185.639 144.96C184.145 143.467 182.652 142.453 181.159 141.92C179.665 141.387 177.852 140.853 175.719 140.32C173.692 139.787 171.665 139.253 169.639 138.72C167.719 138.187 165.585 137.493 163.239 136.64C160.999 135.68 158.492 134.347 155.719 132.64C150.279 129.12 147.559 123.253 147.559 115.04C147.559 106.72 150.492 100.32 156.359 95.84C162.225 91.36 169.585 89.12 178.439 89.12C187.399 89.12 196.252 91.2533 204.999 95.52V114.72L190.599 115.84V109.12C190.599 106.453 189.372 104.64 186.919 103.68Z" fill="#CD6501"/>
<path d="M234.946 74.56H245.346V91.52H266.626L265.026 104.96H245.346V147.04C245.346 151.733 246.2 155.04 247.906 156.96C249.613 158.773 252.226 159.68 255.746 159.68C259.373 159.68 263 158.56 266.626 156.32L271.426 168.64C266.093 172.373 259.32 174.24 251.106 174.24C246.306 174.24 242.253 173.6 238.946 172.32C235.64 171.147 233.186 169.813 231.586 168.32C229.986 166.827 228.76 164.64 227.906 161.76C227.053 158.88 226.573 156.64 226.466 155.04C226.36 153.333 226.306 150.88 226.306 147.68V104.96H214.946L216.546 93.28C221.56 92.8533 225.346 91.0933 227.906 88C230.466 84.8 232.813 80.32 234.946 74.56Z" fill="#BD0914"/>
<path d="M349.339 94.72V154.24C349.339 155.947 349.605 157.12 350.139 157.76C350.779 158.4 351.845 158.773 353.339 158.88L358.459 159.2V172H333.019V162.72L332.539 162.56C327.205 170.24 319.899 174.08 310.619 174.08C299.739 174.08 291.685 170.613 286.459 163.68C281.232 156.747 278.619 147.253 278.619 135.2C278.619 120.693 282.139 109.387 289.179 101.28C296.219 93.1733 306.779 89.12 320.859 89.12C329.925 89.12 339.419 90.9867 349.339 94.72ZM330.779 146.56V105.12C327.792 103.733 323.685 103.04 318.459 103.04C311.312 103.04 306.139 105.92 302.939 111.68C299.739 117.44 298.139 125.067 298.139 134.56C298.139 151.84 303.685 160.48 314.779 160.48C319.472 160.48 323.312 159.093 326.299 156.32C329.285 153.44 330.779 150.187 330.779 146.56Z" fill="#EFCF00"/>
<path d="M410.2 103.68C407.64 102.72 404.547 102.24 400.92 102.24C397.293 102.24 394.36 103.093 392.12 104.8C389.987 106.4 388.92 108.427 388.92 110.88C388.92 113.227 389.293 115.093 390.04 116.48C390.893 117.76 392.173 118.88 393.88 119.84C396.547 121.227 399.747 122.453 403.48 123.52C407.213 124.48 409.987 125.28 411.8 125.92C413.613 126.453 415.853 127.413 418.52 128.8C421.293 130.187 423.373 131.68 424.76 133.28C428.493 137.227 430.36 142.293 430.36 148.48C430.36 156.48 427.427 162.773 421.56 167.36C415.8 171.84 408.44 174.08 399.48 174.08C386.467 174.08 376.653 172.427 370.04 169.12V146.88L384.44 145.76V153.44C384.44 158.133 388.92 160.48 397.88 160.48C406.84 160.48 411.32 157.227 411.32 150.72C411.32 148.373 410.52 146.453 408.92 144.96C407.427 143.467 405.933 142.453 404.44 141.92C402.947 141.387 401.133 140.853 399 140.32C396.973 139.787 394.947 139.253 392.92 138.72C391 138.187 388.867 137.493 386.52 136.64C384.28 135.68 381.773 134.347 379 132.64C373.56 129.12 370.84 123.253 370.84 115.04C370.84 106.72 373.773 100.32 379.64 95.84C385.507 91.36 392.867 89.12 401.72 89.12C410.68 89.12 419.533 91.2533 428.28 95.52V114.72L413.88 115.84V109.12C413.88 106.453 412.653 104.64 410.2 103.68Z" fill="#02337E"/>
</g>
<defs>
<filter id="filter0_d_202_4" x="67.84" y="7.71198" width="233.875" height="69.056" filterUnits="userSpaceOnUse" color-interpolation-filters="sRGB">
<feFlood flood-opacity="0" result="BackgroundImageFix"/>
<feColorMatrix in="SourceAlpha" type="matrix" values="0 0 0 0 0 0 0 0 0 0 0 0 0 0 0 0 0 0 127 0" result="hardAlpha"/>
<feOffset dy="4"/>
<feGaussianBlur stdDeviation="2"/>
<feComposite in2="hardAlpha" operator="out"/>
<feColorMatrix type="matrix" values="0 0 0 0 0 0 0 0 0 0 0 0 0 0 0 0 0 0 0.25 0"/>
<feBlend mode="normal" in2="BackgroundImageFix" result="effect1_dropShadow_202_4"/>
<feBlend mode="normal" in="SourceGraphic" in2="effect1_dropShadow_202_4" result="shape"/>
</filter>
<filter id="filter1_d_202_4" x="0.600006" y="56.32" width="433.76" height="125.92" filterUnits="userSpaceOnUse" color-interpolation-filters="sRGB">
<feFlood flood-opacity="0" result="BackgroundImageFix"/>
<feColorMatrix in="SourceAlpha" type="matrix" values="0 0 0 0 0 0 0 0 0 0 0 0 0 0 0 0 0 0 127 0" result="hardAlpha"/>
<feOffset dy="4"/>
<feGaussianBlur stdDeviation="2"/>
<feComposite in2="hardAlpha" operator="out"/>
<feColorMatrix type="matrix" values="0 0 0 0 0 0 0 0 0 0 0 0 0 0 0 0 0 0 0.25 0"/>
<feBlend mode="normal" in2="BackgroundImageFix" result="effect1_dropShadow_202_4"/>
<feBlend mode="normal" in="SourceGraphic" in2="effect1_dropShadow_202_4" result="shape"/>
</filter>
</defs>
</svg>
